# xmcd CD database file
#
# Track frame offsets:
#	150
#	17547
#	43760
#	68490
#	79635
#	107089
#	140369
#	157037
#	174025
#	199435
#	221078
#	246568
#	264570
#	292435
#	311429
#
# Disc length: 4419 seconds
#
# Revision: 0
# Processed by: cddbd v1.5.2PL0 Copyright (c) Steve Scherf et al.
# Submitted via: CDex 1.51
#
DISCID=dd11410f
DTITLE=ENIGMA - Moonlight - The Remix Collection
DYEAR=2009
DGENRE=New Age
TTITLE0=Hello And Welcome(Original Version)
TTITLE1=Downtown Silence(Fato Deejays Mix)
TTITLE2=Sadeness Part I(Ebi Kuma Mix)
TTITLE3=Feel Me Heaven (Fato Deejays Mix)
TTITLE4=Eppur Si Muove(Fato Deejays Mix)
TTITLE5=I Love You, I'll Kill You(Fato Deejays Mix)
TTITLE6=The Eyes Of Truth(Maxliss Mix)
TTITLE7=Seven Lives(Fast Mix)
TTITLE8=Endless Quest(Fato Deejays Mix)
TTITLE9=Why!(Gatto Mix)
TTITLE10=The Gate(NN Mix)
TTITLE11=Boum Boum(Chicane Remix)
TTITLE12=The Same Parents(Saga Mix)
TTITLE13=Voyageur(Chillout Mix)
TTITLE14=Carly's Loneliness(Fato Deejays Mix)
EXTD=YEAR: 2009
EXTT0=
EXTT1=
EXTT2=
EXTT3=
EXTT4=
EXTT5=
EXTT6=
EXTT7=
EXTT8=
EXTT9=
EXTT10=
EXTT11=
EXTT12=
EXTT13=
EXTT14=
PLAYORDER=
